<?xml version="1.0" encoding="iso-8859-1"?>
<!-- Generator: Adobe Illustrator 18.0.0, SVG Export Plug-In . SVG Version: 6.00 Build 0)  -->
<!DOCTYPE svg PUBLIC "-//W3C//DTD SVG 1.1//EN" "http://www.w3.org/Graphics/SVG/1.1/DTD/svg11.dtd">
<svg version="1.1" id="Capa_1" xmlns="http://www.w3.org/2000/svg" xmlns:xlink="http://www.w3.org/1999/xlink" x="0px" y="0px"
	 viewBox="0 0 419.362 419.362" style="enable-background:new 0 0 419.362 419.362;" xml:space="preserve">
<g>
	<path d="M394.159,202.181H308.99c1.388-3.122,2.166-6.572,2.166-10.203V39.435c0-13.897-11.306-25.203-25.203-25.203H133.41
		c-13.897,0-25.203,11.306-25.203,25.203v152.543c0,3.631,0.778,7.081,2.166,10.203h-85.17C11.306,202.181,0,213.487,0,227.384
		v152.543c0,13.897,11.306,25.203,25.203,25.203h152.543c13.897,0,25.203-11.306,25.203-25.203V227.384
		c0-3.631-0.778-7.081-2.166-10.203h17.795c-1.388,3.122-2.166,6.572-2.166,10.203v152.543c0,13.897,11.306,25.203,25.203,25.203
		h152.543c13.897,0,25.203-11.306,25.203-25.203V227.384C419.362,213.487,408.057,202.181,394.159,202.181z M123.207,191.978V39.435
		c0-5.626,4.577-10.203,10.203-10.203h152.543c5.626,0,10.203,4.577,10.203,10.203v152.543c0,5.626-4.577,10.203-10.203,10.203
		H133.41C127.784,202.181,123.207,197.604,123.207,191.978z M187.949,227.384v152.543c0,5.626-4.577,10.203-10.203,10.203H25.203
		c-5.626,0-10.203-4.577-10.203-10.203V227.384c0-5.626,4.577-10.203,10.203-10.203h152.543
		C183.372,217.181,187.949,221.758,187.949,227.384z M404.362,379.927c0,5.626-4.577,10.203-10.203,10.203H241.616
		c-5.626,0-10.203-4.577-10.203-10.203V227.384c0-5.626,4.577-10.203,10.203-10.203h152.543c5.626,0,10.203,4.577,10.203,10.203
		V379.927z"/>
	<path d="M310.91,245.983l-43.304,109.844l13.955,5.501l10.042-25.472h52.569l10.042,25.473l13.955-5.501l-43.305-109.844H310.91z
		 M297.517,320.856l20.371-51.673l20.371,51.673H297.517z"/>
	<path d="M119.103,298.678c5.122-6.083,8.217-13.927,8.217-22.484c0-19.277-15.684-34.961-34.961-34.961H61.9v124.844h44.188
		c19.277,0,34.961-15.684,34.961-34.961C141.05,316.438,131.952,303.852,119.103,298.678z M76.9,256.233h15.458
		c11.007,0,19.961,8.955,19.961,19.961c0,11.006-8.954,19.961-19.961,19.961H76.9V256.233z M106.089,351.078H76.9v-39.922h15.458
		h13.73c11.007,0,19.961,8.955,19.961,19.961S117.096,351.078,106.089,351.078z"/>
	<path d="M209.682,178.128c20.875,0,37.857-16.982,37.857-37.857h-15c0,12.604-10.254,22.857-22.857,22.857
		s-22.857-10.253-22.857-22.857v-49.13c0-12.604,10.254-22.857,22.857-22.857s22.857,10.254,22.857,22.857h15
		c0-20.875-16.982-37.857-37.857-37.857s-37.857,16.983-37.857,37.857v49.13C171.824,161.146,188.807,178.128,209.682,178.128z"/>
</g>
<g>
</g>
<g>
</g>
<g>
</g>
<g>
</g>
<g>
</g>
<g>
</g>
<g>
</g>
<g>
</g>
<g>
</g>
<g>
</g>
<g>
</g>
<g>
</g>
<g>
</g>
<g>
</g>
<g>
</g>
</svg>
