<svg id="Capa_1" enable-background="new 0 0 512 512" height="512" viewBox="0 0 512 512" width="512" xmlns="http://www.w3.org/2000/svg"><path d="m477.022 207.851-44.751-31.92c-.06-.045-.114-.095-.175-.139-.062-.044-.127-.079-.19-.122l-62.522-44.595c-.007-.005-.014-.011-.021-.017-.007-.005-.015-.009-.022-.014l-29.823-21.272c-4.496-3.207-10.741-2.162-13.948 2.334-3.207 4.497-2.162 10.741 2.334 13.948l21.708 15.484-20.87 29.276c-3.259 4.573-4.534 10.15-3.591 15.705.941 5.542 3.974 10.372 8.503 13.573l44.77 31.963c3.582 2.568 7.793 3.909 12.132 3.909 1.162 0 2.334-.096 3.505-.291 5.557-.924 10.411-3.951 13.664-8.516l20.888-29.27 36.793 26.244c5.436 3.879 6.705 11.457 2.825 16.894l-21.857 30.647c-7.384 10.365-13.745 9.71-26.3 7.391l-146.092-26.872c-3.069-.564-6.227.337-8.536 2.436-40.167 36.517-101.427 40.118-145.661 8.557-50.991-36.38-63.781-106.645-29.635-158.521.047-.073.097-.143.143-.217.762-1.151 1.538-2.297 2.346-3.43 8.048-11.284 17.848-20.861 28.953-28.469.483-.272.94-.582 1.368-.927 13.441-8.927 28.735-15.002 45.129-17.746 30.63-5.125 61.414 1.985 86.682 20.021 4.496 3.209 10.74 2.166 13.949-2.33 3.208-4.495 2.166-10.74-2.329-13.949-29.619-21.142-65.705-29.476-101.603-23.469-14.982 2.507-29.177 7.394-42.174 14.382-6.867-14.16-21.338-23.7-38.003-23.7-10.059 0-19.302 3.543-26.564 9.439h-14.65c-23.926 0-43.391 17.24-43.391 38.431v126.523c-.003.158-.003.316 0 .475v177.654c-.268 27.153 7.802 50.157 23.985 68.372 13.962 15.715 33.358 27.233 57.649 34.233 17.081 4.922 35.668 7.211 54.038 7.21 47.016-.001 92.565-14.998 107.452-39.207 5.268-8.568 11.316-25.943-7.368-46.049-29.448-31.703-59.489-42.893-88.54-53.715-47.413-17.662-92.206-34.34-127.217-150.203v-125.29c0-9.991 10.712-18.431 23.391-18.431h.977c-1.29 4.045-1.992 8.351-1.992 12.818 0 16.599 9.907 31.307 24.231 38.157-31.156 59.312-14.49 134.232 41.556 174.219 23.095 16.477 50.894 25.326 79.12 25.325 2.922 0 5.849-.095 8.775-.286 29.061-1.897 56.937-13.131 79.054-31.768l141.331 25.997c12.388 2.289 31.11 5.747 46.212-15.451l21.853-30.641c10.284-14.413 6.924-34.505-7.491-44.79zm-85.58 7.696c-.193.271-.467.367-.663.399-.184.031-.458.031-.718-.156l-44.825-32.002c-.198-.14-.322-.347-.367-.616-.033-.194-.032-.481.159-.749l20.866-29.271 46.436 33.122zm-326.475 108.917c24.166 23.437 50.148 33.116 75.274 42.476 28.103 10.468 54.648 20.356 80.87 48.585 9.971 10.73 7.619 17.672 4.982 21.959-6.832 11.111-27.191 21.15-53.13 26.199-28.669 5.579-59.936 4.506-85.785-2.942-30.93-8.914-67.691-30.582-67.173-83.289v-121.058c12.864 29.037 27.579 51.211 44.962 68.07zm19.644-279.633c9.602 0 17.805 6.01 20.908 14.63-10.631 7.988-20.129 17.587-28.188 28.609-8.7-3.06-14.949-11.417-14.949-20.981 0-12.273 9.972-22.258 22.229-22.258z"/><path d="m235.065 101.523c-17.9-12.766-39.696-17.801-61.379-14.176-21.685 3.625-40.658 15.478-53.422 33.377-26.342 36.937-17.718 88.449 19.225 114.829.001.001.003.002.004.003 14.102 10.058 30.625 15.313 47.607 15.313 4.571 0 9.177-.381 13.776-1.151 21.683-3.633 40.654-15.492 53.419-33.391 26.349-36.948 17.722-88.449-19.23-114.804zm2.946 103.192c-9.664 13.551-24.026 22.528-40.44 25.279-16.412 2.749-32.912-1.057-46.46-10.716-27.973-19.975-34.506-58.976-14.563-86.94 9.662-13.548 24.022-22.52 40.436-25.264 16.414-2.743 32.917 1.068 46.469 10.733 27.974 19.951 34.504 58.937 14.558 86.908z"/><path d="m422.581 122.825c1.76 1.255 3.788 1.858 5.796 1.858 3.123 0 6.2-1.459 8.151-4.196l27.665-38.806c3.206-4.498 2.159-10.742-2.338-13.948-4.496-3.206-10.741-2.16-13.947 2.338l-27.665 38.806c-3.206 4.497-2.159 10.742 2.338 13.948z"/><path d="m377.96 105.645c.817 4.89 5.053 8.353 9.851 8.353.548 0 1.103-.045 1.661-.138 5.447-.911 9.125-6.064 8.215-11.512l-6.803-40.705c-.911-5.448-6.067-9.126-11.512-8.215-5.447.911-9.125 6.064-8.215 11.512z"/><path d="m511.861 139.479c-.911-5.447-6.064-9.126-11.513-8.212l-50.313 8.419c-5.447.912-9.124 6.066-8.212 11.513.818 4.889 5.053 8.351 9.851 8.351.548 0 1.104-.045 1.663-.139l50.313-8.419c5.446-.911 9.123-6.065 8.211-11.513z"/><path d="m297.146 101.835c2.559 0 5.119-.976 7.071-2.929 3.905-3.905 3.905-10.237 0-14.143l-.028-.028c-3.906-3.905-10.223-3.89-14.128.014-3.905 3.905-3.891 10.251.014 14.157 1.952 1.953 4.512 2.929 7.071 2.929z"/></svg>